<?xml version="1.0" encoding="UTF-8" standalone="no" ?>
<!DOCTYPE svg PUBLIC "-//W3C//DTD SVG 1.1//EN" "http://www.w3.org/Graphics/SVG/1.1/DTD/svg11.dtd">
<svg xmlns="http://www.w3.org/2000/svg" xmlns:xlink="http://www.w3.org/1999/xlink" version="1.1" width="1080" height="1080" viewBox="0 0 1080 1080" xml:space="preserve">
<desc>Created with Fabric.js 5.2.4</desc>
<defs>
</defs>
<g transform="matrix(1 0 0 1 540 540)" id="b71b2426-1d94-4e5e-9407-b477d3aef5cf"  >
<rect style="stroke: none; stroke-width: 1; stroke-dasharray: none; stroke-linecap: butt; stroke-dashoffset: 0; stroke-linejoin: miter; stroke-miterlimit: 4; fill: rgb(255,255,255); fill-rule: nonzero; opacity: 1; visibility: hidden;" vector-effect="non-scaling-stroke"  x="-540" y="-540" rx="0" ry="0" width="1080" height="1080" />
</g>
<g transform="matrix(1 0 0 1 540 540)" id="190967ff-93fd-4b9c-a46c-22643a02b5f4"  >
</g>
<g transform="matrix(12.31 0 0 12.31 540 540)" id="454eb246-9e8b-484f-8f6e-46d282a76100"  >
<path style="stroke: rgb(0,0,0); stroke-width: 0; stroke-dasharray: none; stroke-linecap: butt; stroke-dashoffset: 0; stroke-linejoin: miter; stroke-miterlimit: 4; fill: rgb(45,166,176); fill-rule: nonzero; opacity: 1;" vector-effect="non-scaling-stroke"  transform=" translate(-60, -29.99)" d="M 49.83 28.164 L 52.088 28.164 C 52.788000000000004 28.164 53.348 28.07 53.762 27.884 C 54.176 27.698 54.495 27.429000000000002 54.716 27.080000000000002 C 54.937000000000005 26.731 55.086 26.3 55.164 25.790000000000003 C 55.242000000000004 25.280000000000005 55.281 24.686000000000003 55.281 24.013 C 55.281 23.34 55.241 22.747 55.164 22.236 C 55.087 21.725 54.924 21.288 54.677 20.926000000000002 C 54.43 20.564000000000004 54.077 20.296000000000003 53.644999999999996 20.122000000000003 C 53.212999999999994 19.948000000000004 52.62 19.860000000000003 51.892999999999994 19.860000000000003 L 49.83 19.860000000000003 z M 45.86 16.114 L 52.245 16.114 C 56.916999999999994 16.114 59.253 18.831 59.253 24.266 C 59.253 25.878 59 27.262999999999998 58.493 28.419999999999998 C 57.986000000000004 29.576999999999998 57.098 30.506999999999998 55.826 31.209999999999997 L 60.108000000000004 43.885999999999996 L 55.903000000000006 43.885999999999996 L 52.14300000000001 31.822999999999993 L 49.83 31.822999999999993 L 49.83 43.885999999999996 L 45.86 43.885999999999996 z M 62.444 16.114 L 68.4 16.114 C 69.5 16.114 70.45 16.257 71.28 16.544 C 72.11 16.831 72.863 17.337 73.538 18.064 C 74.2099108546498 18.786275684834667 74.69169604024098 19.664279357577506 74.94 20.618999999999996 C 75.2 21.594 75.33 22.914 75.33 24.579 C 75.33 25.801000000000002 75.232 26.676000000000002 75.09 27.547 C 74.94800000000001 28.418 74.48700000000001 29.934 72.676 30.962 C 71.544 31.605 69.919 31.836 68.44 31.836 L 66.416 31.836 L 66.416 43.885999999999996 L 62.446 43.885999999999996 z M 66.414 28.164 L 68.322 28.164 C 69.12700000000001 28.164 69.74900000000001 28.061 70.19200000000001 27.854000000000003 C 70.635 27.647000000000006 70.95800000000001 27.368000000000002 71.165 27.014000000000003 C 71.372 26.660000000000004 71.495 26.230000000000004 71.53500000000001 25.727000000000004 C 71.57500000000002 25.224000000000004 71.59300000000002 24.663000000000004 71.59300000000002 24.045000000000005 C 71.59300000000002 23.473000000000006 71.57300000000002 22.930000000000007 71.53500000000001 22.415000000000006 C 71.497 21.900000000000006 71.379 21.455000000000005 71.18500000000002 21.075000000000006 C 70.99100000000003 20.695000000000007 70.68500000000002 20.400000000000006 70.27000000000001 20.183000000000007 C 69.855 19.966000000000008 69.25800000000001 19.857000000000006 68.48 19.857000000000006 L 66.417 19.857000000000006 z M 90.901 37.684 C 90.901 38.541999999999994 90.73899999999999 39.361 90.414 40.141 C 90.08900000000001 40.921 89.642 41.604 89.071 42.189 C 88.49544599025587 42.777204409074365 87.8155633352781 43.253291814355556 87.066 43.593 C 86.29014608053546 43.94639587039163 85.44652503732202 44.12624550217702 84.59400000000001 44.120000000000005 C 83.84100000000001 44.120000000000005 83.07600000000001 44.016000000000005 82.29700000000001 43.80800000000001 C 81.52773442806279 43.604580529288455 80.81098133725868 43.23870228645649 80.19500000000001 42.73500000000001 C 79.572 42.22800000000001 79.06 41.55800000000001 78.65700000000001 40.72500000000001 C 78.25400000000002 39.89200000000001 78.05400000000002 38.84000000000001 78.05400000000002 37.56500000000001 L 78.05400000000002 22.26500000000001 C 78.05400000000002 21.365000000000013 78.21000000000002 20.510000000000012 78.52100000000002 19.73000000000001 C 78.83200000000001 18.95000000000001 79.27400000000002 18.27400000000001 79.84500000000001 17.702000000000012 C 80.41600000000001 17.130000000000013 81.09700000000001 16.682000000000013 81.88900000000001 16.356000000000012 C 82.68100000000001 16.030000000000012 83.55700000000002 15.868000000000013 84.51700000000001 15.868000000000013 C 85.42500000000001 15.868000000000013 86.269 16.031000000000013 87.04700000000001 16.356000000000012 C 87.82500000000002 16.68100000000001 88.50000000000001 17.136000000000013 89.07100000000001 17.72100000000001 C 89.64200000000001 18.306000000000008 90.09100000000001 19.00800000000001 90.41400000000002 19.827000000000012 C 90.73700000000002 20.646000000000015 90.90100000000001 21.52700000000001 90.90100000000001 22.499000000000013 L 90.90100000000001 24.05900000000001 L 86.93100000000001 24.05900000000001 L 86.93100000000001 22.73300000000001 C 86.93100000000001 21.95300000000001 86.71100000000001 21.27700000000001 86.269 20.705000000000013 C 85.84887784957675 20.14253759129414 85.17959609604797 19.82191015158018 84.47800000000001 19.847000000000012 C 83.492 19.847000000000012 82.83600000000001 20.153000000000013 82.51200000000001 20.764000000000014 C 82.18800000000002 21.375000000000014 82.02500000000002 22.149000000000015 82.02500000000002 23.084000000000014 L 82.02500000000002 37.28200000000001 C 82.02500000000002 38.08800000000001 82.20000000000002 38.76400000000001 82.55100000000002 39.31000000000001 C 82.90200000000002 39.85600000000001 83.53100000000002 40.13000000000001 84.43900000000002 40.13000000000001 C 84.69900000000003 40.13000000000001 84.97900000000003 40.08400000000001 85.27600000000002 39.99300000000001 C 85.57300000000002 39.90200000000001 85.84600000000002 39.75300000000001 86.09400000000002 39.543000000000006 C 86.34200000000003 39.333000000000006 86.54200000000002 39.04900000000001 86.69700000000002 38.68500000000001 C 86.85200000000002 38.32100000000001 86.93100000000001 37.86500000000001 86.93100000000001 37.32000000000001 L 86.93100000000001 35.955000000000005 L 90.90100000000001 35.955000000000005 z M 98.681 29.964 C 98.681 28.95 97.861 28.128 96.851 28.128 L 86.934 28.128 L 86.934 31.798000000000002 L 95.02 31.798000000000002 L 95.02 35.893 L 93.774 35.893 L 96.872 40.27 L 99.97 35.893 L 98.682 35.893 z M 29.040999999999997 31.834 L 29.040999999999997 37.331 C 29.040999999999997 38.475 29.235999999999997 39.471000000000004 29.624999999999996 40.315000000000005 C 30.013999999999996 41.159000000000006 30.526999999999997 41.862 31.162999999999997 42.42100000000001 C 31.798999999999996 42.98000000000001 32.513 43.403000000000006 33.303 43.68900000000001 C 34.06985365310966 43.970598186026905 34.880080679490305 44.11578924463898 35.696999999999996 44.11800000000001 C 36.51391932050968 44.11578924463898 37.32414634689033 43.970598186026905 38.090999999999994 43.68900000000001 C 38.882999999999996 43.403000000000006 39.596 42.979000000000006 40.230999999999995 42.42100000000001 C 40.86599999999999 41.86300000000001 41.379 41.16100000000001 41.76899999999999 40.315000000000005 C 42.158999999999985 39.469 42.352999999999994 38.475 42.352999999999994 37.331 L 42.352999999999994 28.171000000000003 L 35.23799999999999 28.161 L 35.227999999999994 31.834000000000003 L 38.38099999999999 31.834000000000003 L 38.38099999999999 37.332 C 38.38099999999999 38.294000000000004 38.114999999999995 39.002 37.58299999999999 39.458 C 37.05924946837971 39.91039898478879 36.38696867259608 40.1536022599584 35.69499999999999 40.141 C 35.0030313274039 40.1536022599584 34.330750531620275 39.91039898478879 33.806999999999995 39.458 C 33.27499999999999 39.003 33.00899999999999 38.294 33.00899999999999 37.332 L 33.00899999999999 22.667 C 33.00899999999999 21.705000000000002 33.27499999999999 20.997 33.806999999999995 20.541 C 34.330750531620275 20.08860101521121 35.0030313274039 19.8453977400416 35.69499999999999 19.858 C 36.38696867259608 19.8453977400416 37.05924946837971 20.08860101521121 37.58299999999999 20.541 C 38.114999999999995 20.996 38.38099999999999 21.705000000000002 38.38099999999999 22.667 L 38.38099999999999 24.071 L 42.35099999999999 24.071 L 42.35099999999999 22.667 C 42.35099999999999 21.549000000000003 42.15599999999999 20.561 41.76699999999999 19.703000000000003 C 41.377999999999986 18.845000000000006 40.86499999999999 18.136000000000003 40.22899999999999 17.577 C 39.592999999999996 17.018 38.87899999999999 16.595000000000002 38.08899999999999 16.309 C 37.32214634689033 16.0274018139731 36.511919320509676 15.88221075536103 35.69499999999999 15.880000000000003 C 34.87808067949031 15.88221075536103 34.06785365310965 16.027401813973103 33.300999999999995 16.309000000000005 C 32.50899999999999 16.595000000000002 31.795999999999996 17.019000000000002 31.160999999999994 17.577 C 30.525999999999993 18.135 30.012999999999995 18.845000000000002 29.622999999999994 19.703000000000003 C 29.232999999999993 20.561000000000003 29.038999999999994 21.549000000000003 29.038999999999994 22.667 L 29.038999999999994 28.164 L 24.98 28.164 L 24.98 24.07 L 26.226 24.07 L 23.128 19.693 L 20.03 24.07 L 21.318 24.07 L 21.318 30 C 21.318 31.014 22.138 31.836 23.148000000000003 31.836 L 29.041000000000004 31.836 z" stroke-linecap="round" />
</g>
</svg>