<?xml version="1.0" encoding="UTF-8" standalone="no" ?>
<!DOCTYPE svg PUBLIC "-//W3C//DTD SVG 1.1//EN" "http://www.w3.org/Graphics/SVG/1.1/DTD/svg11.dtd">
<svg xmlns="http://www.w3.org/2000/svg" xmlns:xlink="http://www.w3.org/1999/xlink" version="1.1" width="1080" height="1080" viewBox="0 0 1080 1080" xml:space="preserve">
<desc>Created with Fabric.js 5.2.4</desc>
<defs>
</defs>
<rect x="0" y="0" width="100%" height="100%" fill="transparent"></rect>
<g transform="matrix(1 0 0 1 540 540)" id="b71b2426-1d94-4e5e-9407-b477d3aef5cf"  >
<rect style="stroke: none; stroke-width: 1; stroke-dasharray: none; stroke-linecap: butt; stroke-dashoffset: 0; stroke-linejoin: miter; stroke-miterlimit: 4; fill: rgb(255,255,255); fill-rule: nonzero; opacity: 1; visibility: hidden;" vector-effect="non-scaling-stroke"  x="-540" y="-540" rx="0" ry="0" width="1080" height="1080" />
</g>
<g transform="matrix(1 0 0 1 540 540)" id="190967ff-93fd-4b9c-a46c-22643a02b5f4"  >
</g>
<g transform="matrix(4.01 0 0 4.01 540 540)"  >
<g style="" vector-effect="non-scaling-stroke"   >
		<g transform="matrix(1.25 0 0 1.25 -75.17 40.36)"  >
<path style="stroke: none; stroke-width: 1; stroke-dasharray: none; stroke-linecap: butt; stroke-dashoffset: 0; stroke-linejoin: miter; stroke-miterlimit: 4; fill: rgb(0,97,138); fill-rule: nonzero; opacity: 1;" vector-effect="non-scaling-stroke"  transform=" translate(-42.26, -85.17)" d="M 0 96.334 L 6.747 96.334 L 6.747 69.7 L 17.192 92.927 C 18.424 95.727 20.112000000000002 96.733 23.42 96.733 C 26.728 96.733 28.35 95.738 29.584000000000003 92.927 L 40.03 69.7 L 40.03 96.344 L 46.778 96.344 L 46.778 69.744 C 46.778 67.149 45.738 65.894 43.598 65.246 C 38.473 63.645999999999994 35.034 65.03 33.478 68.49 L 23.228 91.413 L 13.3 68.48 C 11.808 65.02000000000001 8.305 63.636 3.1800000000000015 65.236 C 1.038 65.885 0 67.14 0 69.734 L 0 96.334 z M 52.386 74.648 L 59.131 74.648 L 59.131 89.328 C 59.068 90.126 59.387 91.998 63.083 92.055 C 64.969 92.08500000000001 77.637 92.055 77.755 92.055 L 77.755 74.575 L 84.515 74.575 C 84.545 74.575 84.508 98.409 84.509 98.511 C 84.546 104.389 77.215 105.666 73.837 105.765 L 52.533 105.765 L 52.533 101.225 L 73.875 101.22399999999999 C 78.217 100.764 77.705 98.60699999999999 77.705 97.88 L 77.705 96.11 L 63.364999999999995 96.11 C 56.693 96.05 52.44499999999999 93.137 52.391999999999996 89.787 C 52.38699999999999 89.48700000000001 52.535999999999994 74.792 52.388 74.647 z" stroke-linecap="round" />
</g>
		<g transform="matrix(1.25 0 0 1.25 47.88 37.74)"  >
<path style="stroke: none; stroke-width: 1; stroke-dasharray: none; stroke-linecap: butt; stroke-dashoffset: 0; stroke-linejoin: miter; stroke-miterlimit: 4; fill: rgb(228,142,0); fill-rule: nonzero; opacity: 1;" vector-effect="non-scaling-stroke"  transform=" translate(-140.7, -83.07)" d="M 89.716 96.334 L 109.11399999999999 96.334 C 111.38399999999999 96.334 113.591 95.85900000000001 115.344 95.036 C 118.264 93.696 119.69099999999999 91.879 119.69099999999999 89.5 L 119.69099999999999 84.57 C 119.69099999999999 82.62299999999999 118.06899999999999 80.80699999999999 114.89099999999999 79.59599999999999 C 113.204 78.94599999999998 111.12799999999999 78.60099999999998 109.11699999999999 78.60099999999998 L 100.942 78.60099999999998 C 98.21799999999999 78.60099999999998 96.91999999999999 77.77899999999998 96.59599999999999 75.96299999999998 C 96.53099999999999 75.74699999999999 96.53099999999999 75.56299999999997 96.53099999999999 75.35699999999999 L 96.53099999999999 72.28699999999999 C 96.53099999999999 72.11399999999999 96.53099999999999 71.94 96.59599999999999 71.72399999999999 C 96.91999999999999 70.33999999999999 97.63399999999999 69.94999999999999 100.03399999999999 69.72399999999999 C 100.22899999999998 69.72399999999999 100.48799999999999 69.67999999999999 100.684 69.67999999999999 L 119.952 69.67999999999999 L 119.952 65.18299999999999 L 101.008 65.18299999999999 C 98.283 65.18299999999999 96.856 65.356 95.55799999999999 65.74499999999999 C 91.532 67 89.78 69 89.78 72.46 L 89.78 76.39599999999999 C 89.78 79.42399999999999 93.22 82.01899999999999 98.992 82.62399999999998 C 99.64200000000001 82.66699999999999 100.29 82.70999999999998 100.938 82.70999999999998 L 107.94500000000001 82.70999999999998 C 108.20500000000001 82.70999999999998 108.465 82.70999999999998 108.659 82.75399999999998 C 110.799 82.92699999999998 111.709 83.31599999999997 112.357 84.09399999999998 C 112.757 84.49399999999999 112.877 84.87399999999998 112.877 85.29399999999998 L 112.877 89.22999999999999 C 112.877 89.70599999999999 112.553 90.31199999999998 111.904 90.82999999999998 C 111.32 91.34999999999998 110.347 91.69499999999998 109.04899999999999 91.78199999999998 C 108.78899999999999 91.78199999999998 108.595 91.82499999999999 108.336 91.82499999999999 L 89.716 91.82499999999999 L 89.716 96.323 z M 161.77999999999997 88.506 C 161.77999999999997 93.134 165.21799999999996 95.729 172.15999999999997 96.248 C 172.8075409029894 96.2981169408216 173.45656249060093 96.32679929258654 174.10599999999997 96.334 L 191.68799999999996 96.334 L 191.68799999999996 91.836 L 173.97599999999997 91.836 C 170.01899999999998 91.836 168.52599999999998 90.841 168.52599999999998 88.462 L 168.52599999999998 65.19200000000001 L 161.779 65.19200000000001 L 161.779 88.504 z M 123.99499999999998 88.74 L 123.99499999999998 72.705 C 123.99499999999998 68.631 126.85499999999998 66.16 132.51099999999997 65.38 C 133.1141823299038 65.29384813916955 133.72269638043696 65.25040671875807 134.33199999999997 65.25 L 147.13899999999995 65.25 C 147.76989161713075 65.25038954151987 148.40002157146762 65.29382373773609 149.02499999999995 65.38 C 154.68099999999995 66.16 157.54099999999994 68.63 157.54099999999994 72.705 L 157.54099999999994 88.74 C 157.54099999999994 92.045 156.32599999999994 93.814 153.52599999999995 94.967 L 160.17199999999994 100.967 L 152.33799999999994 100.967 L 146.96099999999993 96.113 L 141.54799999999992 96.456 L 134.3319999999999 96.456 C 133.0969999999999 96.456 131.7969999999999 96.282 130.3659999999999 95.89200000000001 C 126.0659999999999 94.72200000000001 123.9959999999999 92.468 123.9959999999999 88.74000000000001 z M 131.27799999999996 88.33999999999999 C 131.27799999999996 88.55699999999999 131.34299999999996 88.773 131.40799999999996 89.03399999999999 C 131.80799999999996 90.898 133.55299999999997 91.93799999999999 136.20799999999997 91.93799999999999 L 142.33799999999997 91.93799999999999 L 136.70799999999997 86.85499999999999 L 144.54199999999997 86.85499999999999 L 149.44199999999998 91.28799999999998 C 150.34699999999998 90.80599999999998 150.94199999999998 90.06799999999998 151.14199999999997 89.12099999999998 C 151.20699999999997 88.90499999999999 151.20699999999997 88.68799999999997 151.20699999999997 88.47099999999998 L 151.20699999999997 73.096 C 151.20699999999997 72.923 151.20699999999997 72.696 151.14199999999997 72.489 C 150.74199999999996 70.756 148.99599999999998 69.759 146.39599999999996 69.759 L 136.22 69.759 C 133.22 69.759 131.28 71.059 131.28 73.096 L 131.28 88.352 z" stroke-linecap="round" />
</g>
		<g transform="matrix(1.25 0 0 1.25 79.03 -19.48)"  >
<path style="stroke: none; stroke-width: 1; stroke-dasharray: none; stroke-linecap: butt; stroke-dashoffset: 0; stroke-linejoin: miter; stroke-miterlimit: 4; fill: rgb(0,97,138); fill-rule: nonzero; opacity: 1;" vector-effect="non-scaling-stroke"  transform=" translate(-165.62, -37.3)" d="M 197.624 57.73 C 193.477 57.617999999999995 190.308 58.003 187.6 59.144999999999996 C 186.82999999999998 59.47 185.60299999999998 59.477999999999994 185.477 60.443 C 185.9 60.885999999999996 185.967 61.547999999999995 186.302 62.092999999999996 C 186.94899999999998 63.13999999999999 188.042 64.54299999999999 189.015 65.277 C 190.07899999999998 66.08 191.17499999999998 66.94 192.31799999999998 67.637 C 194.34799999999998 68.875 196.61399999999998 69.582 198.56799999999998 70.821 C 199.71999999999997 71.551 200.86399999999998 72.471 201.98799999999997 73.297 C 202.54299999999998 73.705 202.91799999999998 74.339 203.63799999999998 74.594 L 203.63799999999998 74.476 C 203.25799999999998 73.993 203.16099999999997 73.329 202.813 72.826 L 201.28 71.29299999999999 C 199.78 69.29299999999999 197.87800000000001 67.556 195.855 66.103 C 194.242 64.945 190.631 63.38099999999999 189.958 61.50299999999999 L 189.84 61.38499999999999 C 190.984 61.25499999999999 192.323 60.84199999999999 193.38 60.55999999999999 C 195.153 60.08499999999999 196.738 60.20699999999999 198.57 59.734999999999985 L 201.047 59.02699999999999 L 201.047 58.554999999999986 C 200.121 57.60499999999998 199.46099999999998 56.347999999999985 198.452 55.48899999999998 C 195.812 53.23899999999998 192.929 50.993999999999986 189.962 49.118999999999986 C 188.316 48.078999999999986 186.28199999999998 47.40499999999999 184.53699999999998 46.52399999999999 C 183.95 46.22799999999999 182.91899999999998 46.073999999999984 182.53199999999998 45.579999999999984 C 181.61599999999999 44.411999999999985 181.117 42.929999999999986 180.40999999999997 41.579999999999984 C 178.92999999999998 38.72999999999998 177.47599999999997 35.615999999999985 176.16399999999996 32.61699999999998 C 175.26899999999995 30.57199999999998 174.68399999999997 28.554999999999982 173.56999999999996 26.719999999999985 C 168.21499999999997 17.915999999999983 162.44999999999996 12.601999999999984 153.52199999999996 7.379999999999985 C 151.62199999999996 6.2699999999999845 149.33499999999995 5.829999999999985 146.91699999999997 5.256999999999985 L 143.02499999999998 5.020999999999985 C 142.23299999999998 4.690999999999985 141.40899999999996 3.720999999999985 140.66499999999996 3.250999999999985 C 137.70699999999997 1.3809999999999847 130.11999999999998 -2.682000000000015 127.92899999999996 2.6509999999999847 C 126.54599999999996 6.023999999999985 129.99599999999995 9.314999999999984 131.23099999999997 11.024999999999984 C 132.09699999999998 12.224999999999984 133.20699999999997 13.567999999999984 133.82499999999996 14.916999999999984 C 134.23199999999997 15.802999999999983 134.30299999999997 16.691999999999982 134.65099999999995 17.629999999999985 C 135.50799999999995 19.929999999999986 136.25399999999996 22.452999999999985 137.36299999999994 24.587999999999987 C 137.92299999999994 25.667999999999985 138.54099999999994 26.805999999999987 139.24999999999994 27.771999999999988 C 139.68499999999995 28.364999999999988 140.42999999999995 28.625999999999987 140.54699999999994 29.541999999999987 C 139.81899999999993 30.561999999999987 139.77699999999993 32.14199999999999 139.36699999999993 33.43399999999999 C 137.52399999999994 39.24599999999999 138.21899999999994 46.468999999999994 140.89999999999992 50.77099999999999 C 141.72299999999993 52.09099999999999 143.6599999999999 54.92299999999999 146.32499999999993 53.83699999999999 C 148.65499999999994 52.886999999999986 148.12499999999994 49.94699999999999 148.80199999999994 47.35099999999999 C 148.95199999999994 46.76099999999999 148.85999999999993 46.33099999999999 149.15599999999995 45.93599999999999 L 149.15599999999995 46.053999999999995 L 151.27899999999994 50.29899999999999 C 152.84899999999993 52.82899999999999 155.63899999999995 55.47399999999999 158.00099999999995 57.25899999999999 C 159.22599999999994 58.18399999999999 160.20099999999994 59.78399999999999 161.77499999999995 60.324999999999996 L 161.77499999999995 60.206999999999994 L 161.65699999999995 60.206999999999994 C 161.34999999999997 59.727 160.86999999999995 59.529999999999994 160.47699999999995 59.14699999999999 C 159.55399999999995 58.24199999999999 158.52699999999996 57.11699999999999 157.76399999999995 56.08099999999999 C 155.61399999999995 53.16299999999999 153.71599999999995 49.97099999999999 151.98599999999996 46.64599999999999 C 151.15999999999997 45.05899999999998 150.44099999999997 43.307999999999986 149.74599999999995 41.692999999999984 C 149.47799999999995 41.069999999999986 149.48099999999997 40.128999999999984 148.92099999999996 39.80599999999998 C 148.15799999999996 40.98999999999998 147.03399999999996 41.945999999999984 146.44399999999996 43.34399999999998 C 145.49999999999997 45.57799999999998 145.37799999999996 48.30199999999998 145.02899999999997 51.12799999999998 C 144.82199999999997 51.20199999999998 144.91399999999996 51.15099999999998 144.79299999999998 51.24599999999998 C 143.15099999999998 50.84999999999998 142.57299999999998 49.15899999999998 141.96299999999997 47.707999999999984 C 140.41899999999995 44.03799999999998 140.13299999999995 38.131999999999984 141.49099999999996 33.90999999999998 C 141.84099999999995 32.817999999999984 143.43099999999995 29.375999999999983 142.78799999999995 28.366999999999983 C 142.48099999999997 27.35999999999998 141.46799999999996 26.76699999999998 140.90099999999995 26.006999999999984 C 140.20099999999996 25.056999999999984 139.49899999999997 23.802999999999983 139.01399999999995 22.704999999999984 C 137.74999999999994 19.844999999999985 137.15999999999994 16.634999999999984 135.82999999999996 13.741999999999985 C 135.19399999999996 12.359999999999985 134.11999999999995 10.961999999999986 133.23599999999996 9.741999999999985 C 132.25799999999995 8.381999999999985 131.16299999999995 7.377999999999985 130.40599999999995 5.741999999999985 C 130.13599999999994 5.156999999999985 129.76999999999995 4.221999999999985 130.16999999999996 3.6189999999999847 C 130.24797687764234 3.2652562142877146 130.52425621428767 2.9889768776423598 130.87799999999996 2.9109999999999845 C 131.56199999999995 2.3839999999999844 133.46799999999996 3.0859999999999843 134.17999999999995 3.3829999999999845 C 136.06999999999994 4.1689999999999845 137.64999999999995 4.916999999999985 139.25199999999995 5.977999999999985 C 140.02199999999996 6.477999999999985 140.79899999999995 7.473999999999984 141.72799999999995 7.747999999999985 L 142.78799999999995 7.747999999999985 C 144.44799999999995 8.129999999999985 146.30799999999996 7.867999999999985 147.85799999999995 8.337999999999985 C 150.59999999999994 9.170999999999985 153.05599999999995 10.467999999999986 155.28799999999995 11.875999999999985 C 162.08599999999996 16.167999999999985 167.64299999999994 22.277999999999984 171.44499999999996 29.575999999999986 C 172.05699999999996 30.748999999999988 172.32099999999997 31.869999999999987 172.85999999999996 33.11399999999998 C 173.94699999999995 35.61399999999998 175.31599999999995 38.20699999999998 176.39799999999997 40.66099999999998 C 177.47799999999998 43.11099999999998 178.52799999999996 45.58099999999998 180.05399999999997 47.61899999999998 C 180.85599999999997 48.68899999999998 183.95399999999998 49.26499999999998 185.36099999999996 49.85899999999998 C 186.34799999999996 50.27599999999998 187.96399999999997 50.71099999999998 188.89899999999997 51.27399999999998 C 190.68399999999997 52.35099999999998 192.41399999999996 53.63399999999998 194.08899999999997 54.81399999999998 C 194.92599999999996 55.40399999999998 197.49899999999997 56.69699999999998 197.62699999999998 57.76199999999998 z" stroke-linecap="round" />
</g>
		<g transform="matrix(1.25 0 0 1.25 53.06 -47.01)"  >
<path style="stroke: none; stroke-width: 1; stroke-dasharray: none; stroke-linecap: butt; stroke-dashoffset: 0; stroke-linejoin: miter; stroke-miterlimit: 4; fill: rgb(0,97,138); fill-rule: evenodd; opacity: 1;" vector-effect="non-scaling-stroke"  transform=" translate(-144.85, -15.27)" d="M 144.91 12.798 C 144.045 12.782 143.434 12.892 142.787 13.034 L 142.787 13.152000000000001 L 142.905 13.152000000000001 C 143.317 14.000000000000002 144.045 14.545000000000002 144.555 15.275000000000002 L 145.735 17.751 L 145.853 17.633000000000003 C 146.583 17.118000000000002 146.918 16.295 146.913 15.038000000000002 C 146.62 14.730000000000002 146.577 14.344000000000001 146.323 13.976000000000003 C 145.98600000000002 13.486000000000002 145.323 13.208000000000002 144.90800000000002 12.796000000000003 z" stroke-linecap="round" />
</g>
		<g transform="matrix(1.25 0 0 1.25 121.78 48.53)"  >
<path style="stroke: none; stroke-width: 1; stroke-dasharray: none; stroke-linecap: butt; stroke-dashoffset: 0; stroke-linejoin: miter; stroke-miterlimit: 4; fill: rgb(228,142,0); fill-rule: evenodd; opacity: 1;" vector-effect="non-scaling-stroke"  transform=" translate(-199.83, -91.71)" d="M 194.855 91.708 C 194.855 94.678 197.202 96.67999999999999 199.827 96.67999999999999 C 202.452 96.67999999999999 204.799 94.678 204.799 91.708 C 204.799 88.738 202.452 86.736 199.827 86.736 C 197.202 86.736 194.855 88.738 194.855 91.708 z M 203.685 91.708 C 203.685 93.962 201.962 95.646 199.825 95.646 C 197.665 95.646 195.96499999999997 93.962 195.96499999999997 91.708 C 195.96499999999997 89.454 197.66299999999998 87.77 199.825 87.77 C 201.95999999999998 87.77 203.685 89.454 203.685 91.708 z M 201.165 94.54599999999999 L 202.278 94.54599999999999 L 200.648 92.05399999999999 C 201.523 91.96099999999998 202.185 91.53599999999999 202.185 90.50199999999998 C 202.185 89.34799999999998 201.455 88.87199999999999 200.05100000000002 88.87199999999999 L 197.836 88.87199999999999 L 197.836 94.54699999999998 L 198.79100000000003 94.54699999999998 L 198.79100000000003 92.09399999999998 L 199.67900000000003 92.09399999999998 L 201.16400000000004 94.54699999999998 z M 198.791 91.29599999999999 L 198.791 89.666 L 199.891 89.666 C 200.46099999999998 89.666 201.15099999999998 89.77199999999999 201.15099999999998 90.43599999999999 C 201.15099999999998 91.231 200.528 91.29799999999999 199.81099999999998 91.29799999999999 L 198.79099999999997 91.29799999999999 z" stroke-linecap="round" />
</g>
</g>
</g>
</svg>